<?xml version="1.0" encoding="UTF-8" standalone="no"?>
<!-- Created with Inkscape (http://www.inkscape.org/) -->

<svg
   xmlns:dc="http://purl.org/dc/elements/1.1/"
   xmlns:cc="http://creativecommons.org/ns#"
   xmlns:rdf="http://www.w3.org/1999/02/22-rdf-syntax-ns#"
   xmlns:svg="http://www.w3.org/2000/svg"
   xmlns="http://www.w3.org/2000/svg"
   xmlns:sodipodi="http://sodipodi.sourceforge.net/DTD/sodipodi-0.dtd"
   xmlns:inkscape="http://www.inkscape.org/namespaces/inkscape"
   width="200"
   height="200"
   id="svg2"
   version="1.1"
   inkscape:version="0.48.4 r9939"
   sodipodi:docname="Nouveau document 1">
  <defs
     id="defs4" />
  <sodipodi:namedview
     id="base"
     pagecolor="#ffffff"
     bordercolor="#666666"
     borderopacity="1.0"
     inkscape:pageopacity="0.0"
     inkscape:pageshadow="2"
     inkscape:zoom="0.98994949"
     inkscape:cx="186.50798"
     inkscape:cy="7.0288057"
     inkscape:document-units="px"
     inkscape:current-layer="text2991"
     showgrid="false"
     showguides="true"
     inkscape:guide-bbox="true"
     inkscape:window-width="1366"
     inkscape:window-height="711"
     inkscape:window-x="0"
     inkscape:window-y="0"
     inkscape:window-maximized="1" />
  <metadata
     id="metadata7">
    <rdf:RDF>
      <cc:Work
         rdf:about="">
        <dc:format>image/svg+xml</dc:format>
        <dc:type
           rdf:resource="http://purl.org/dc/dcmitype/StillImage" />
        <dc:title></dc:title>
      </cc:Work>
    </rdf:RDF>
  </metadata>
  <g
     inkscape:label="Calque 1"
     inkscape:groupmode="layer"
     id="layer1"
     transform="translate(0,-852.36218)">
    <rect
       style="color:#000000;fill:#000000;fill-opacity:1;fill-rule:nonzero;stroke:none;stroke-width:15;marker:none;visibility:visible;display:inline;overflow:visible;enable-background:accumulate"
       id="rect2985"
       width="145"
       height="145"
       x="28.571428"
       y="878.07648"
       ry="39.285713"
       rx="39.285713" />
    <text
       xml:space="preserve"
       style="font-size:144px;font-style:normal;font-variant:normal;font-weight:normal;font-stretch:normal;line-height:125%;letter-spacing:0px;word-spacing:0px;fill:#000000;fill-opacity:1;stroke:none;font-family:Arial;-inkscape-font-specification:Arial"
       x="50.714287"
       y="988.43359"
       id="text2987"
       sodipodi:linespacing="125%"><tspan
         sodipodi:role="line"
         id="tspan2989"
         x="50.714287"
         y="988.43359"
         style="font-size:144px;font-style:normal;font-variant:normal;font-weight:normal;font-stretch:normal;fill:#ffffff;font-family:Gentium;-inkscape-font-specification:Gentium">Q</tspan></text>
    <g
       style="font-size:8px;font-style:normal;font-variant:normal;font-weight:normal;font-stretch:normal;line-height:125%;letter-spacing:0px;word-spacing:0px;fill:#000000;fill-opacity:1;stroke:none;font-family:Arial;-inkscape-font-specification:Arial"
       id="text2991">
      <text
         xml:space="preserve"
         style="font-size:8px;font-style:normal;font-variant:normal;font-weight:normal;font-stretch:normal;line-height:125%;letter-spacing:0px;word-spacing:0px;fill:#000000;fill-opacity:1;stroke:none;font-family:Arial;-inkscape-font-specification:Arial"
         x="149.50256"
         y="935.18451"
         id="text2998"
         sodipodi:linespacing="125%"><tspan
           sodipodi:role="line"
           id="tspan3000"
           x="149.50256"
           y="935.18451"
           style="font-size:72px;font-style:normal;font-variant:normal;font-weight:normal;font-stretch:normal;fill:#000000;font-family:Janda Manatee Solid;-inkscape-font-specification:Janda Manatee Solid">'</tspan></text>
      <g
         style="line-height:125%;font-family:Arial;-inkscape-font-specification:Arial"
         id="text2998-0">
        <path
           d="m 157.11063,900.37561 c 0.18749,-0.0937 0.60936,-0.35153 1.26562,-0.77344 0.65624,-0.46871 1.28905,-1.05465 1.89844,-1.75781 0.65624,-0.74996 1.17186,-1.59371 1.54687,-2.53125 0.42187,-0.98433 0.49218,-2.06246 0.21094,-3.23437 -1.64063,0.42191 -3.04688,0.46879 -4.21875,0.14062 -1.12501,-0.32808 -2.03907,-0.89058 -2.74219,-1.6875 -0.65625,-0.79683 -1.07813,-1.75777 -1.26562,-2.88281 -0.14063,-1.12495 -0.0703,-2.24995 0.21094,-3.375 0.0655,-0.27306 0.1438,-0.54231 0.23478,-0.80773 3.75868,1.93625 6.79359,3.46123 8.70028,5.54127 1.90669,2.08004 2.91502,2.87348 5.57645,9.02331 -0.16781,0.1775 -0.34092,0.34969 -0.51933,0.51659 -1.45314,1.35941 -3.14064,2.25003 -5.0625,2.67187 -1.92188,0.42191 -3.86719,0.14066 -5.83593,-0.84375"
           style="font-size:72px;fill:#ffffff;font-family:Janda Manatee Solid;-inkscape-font-specification:Janda Manatee Solid"
           id="path3024"
           inkscape:connector-curvature="0"
           sodipodi:nodetypes="cccccccccczcccc" />
      </g>
      <text
         xml:space="preserve"
         style="font-size:8px;font-style:normal;font-variant:normal;font-weight:normal;font-stretch:normal;line-height:125%;letter-spacing:0px;word-spacing:0px;fill:#ffffff;fill-opacity:1;stroke:none;font-family:Arial;-inkscape-font-specification:Arial"
         x="128.6077"
         y="937.5675"
         id="text2998-9"
         sodipodi:linespacing="125%"><tspan
           sodipodi:role="line"
           id="tspan3000-0"
           x="128.6077"
           y="937.5675"
           style="font-size:72px;font-style:normal;font-variant:normal;font-weight:normal;font-stretch:normal;fill:#ffffff;font-family:Janda Manatee Solid;-inkscape-font-specification:Janda Manatee Solid">'</tspan></text>
      <text
         xml:space="preserve"
         style="font-size:8px;font-style:normal;font-variant:normal;font-weight:normal;font-stretch:normal;line-height:125%;letter-spacing:0px;word-spacing:0px;fill:#ffffff;fill-opacity:1;stroke:none;font-family:Arial;-inkscape-font-specification:Arial"
         x="-73.178009"
         y="936.85327"
         id="text2998-9-7"
         sodipodi:linespacing="125%"
         transform="scale(-1,1)"><tspan
           sodipodi:role="line"
           id="tspan3000-0-6"
           x="-73.178009"
           y="936.85327"
           style="font-size:72px;font-style:normal;font-variant:normal;font-weight:normal;font-stretch:normal;fill:#ffffff;font-family:Janda Manatee Solid;-inkscape-font-specification:Janda Manatee Solid">'</tspan></text>
      <text
         xml:space="preserve"
         style="font-size:8px;font-style:normal;font-variant:normal;font-weight:normal;font-stretch:normal;line-height:125%;letter-spacing:0px;word-spacing:0px;fill:#000000;fill-opacity:1;stroke:none;font-family:Arial;-inkscape-font-specification:Arial"
         x="-53.535156"
         y="938.63898"
         id="text2998-9-1"
         sodipodi:linespacing="125%"
         transform="scale(-1,1)"><tspan
           sodipodi:role="line"
           id="tspan3000-0-8"
           x="-53.535156"
           y="938.63898"
           style="font-size:72px;font-style:normal;font-variant:normal;font-weight:normal;font-stretch:normal;fill:#000000;font-family:Janda Manatee Solid;-inkscape-font-specification:Janda Manatee Solid">'</tspan></text>
      <g
         transform="scale(-1,1)"
         style="line-height:125%;font-family:Arial;-inkscape-font-specification:Arial"
         id="text2998-9-1-4">
        <path
           d="m -45.920437,903.80463 c 0.187492,-0.0937 0.609367,-0.35153 1.265625,-0.77344 0.656241,-0.46872 1.289052,-1.05465 1.898438,-1.75781 0.656238,-0.74997 1.171863,-1.59371 1.546875,-2.53125 0.421862,-0.98434 0.492174,-2.06246 0.210937,-3.23438 -1.640636,0.42192 -3.046884,0.46879 -4.21875,0.14063 -1.125007,-0.32809 -2.039069,-0.89058 -2.742187,-1.6875 -0.656255,-0.79683 -1.07813,-1.75777 -1.265625,-2.88282 -0.14063,-1.12495 -0.07032,-2.24995 0.210937,-3.375 0.281245,-1.17182 0.79687,-2.27338 1.546875,-3.30468 0.104957,-0.15087 0.214503,-0.29807 0.32864,-0.44159 7.295353,4.74319 8.580247,5.50456 12.245951,11.48404 0.660242,1.07699 1.279081,2.36965 2.008327,3.98944 -0.568563,0.90592 -1.375799,1.83358 -2.137605,2.54623 -1.45316,1.35939 -3.140641,2.25004 -5.0625,2.67188 -1.921887,0.4219 -3.867197,0.14066 -5.835938,-0.84375"
           style="font-size:72px;fill:#ffffff;font-family:Janda Manatee Solid;-inkscape-font-specification:Janda Manatee Solid"
           id="path3099"
           inkscape:connector-curvature="0"
           sodipodi:nodetypes="cccccccccccscscc" />
      </g>
    </g>
  </g>
</svg>
